<svg xmlns="http://www.w3.org/2000/svg" viewBox="0 0 708 507.76"><defs><style>.clsCms1{fill:#fdfdfd;}.clsCms2,.clsCms4{fill:#5b5a5a;}.clsCms3{fill:#acca40;}.clsCms4{font-size:148.43px;font-family:BellMTBold, Bell MT;}</style></defs><title>nervana logo</title><g id="Layer_2" data-name="Layer 2"><g id="Layer_1-2" data-name="Layer 1"><path class="clsCms1" d="M292.69,159.89c32.16,36,61.76,69.36,91.57,102.51,11.19,12.44,22.8,24.51,34.35,36.62,3.18,3.33,6.3,8.05,11.66,6.64,6.18-1.61,4.48-7.76,4.71-12,.59-10.7-.12-21.48.58-32.17.55-8.3-2.09-14.36-7.72-20.5Q364.75,172.18,302.3,102.81c-3.05-3.37-5.92-5.66-10.81-5.62-15.89.11-31.79-.19-47.69-.31-3.45,0-7.32-.39-7.77,4.47-.34,3.71,2.3,5,5.5,5.88,23.23,6.28,34.22,24.08,35.41,45.56,2.1,38.08,1.71,76.37.68,114.53-.54,20-6.36,24.39-26.59,28.1-3.72.68-8.8.51-8.25,5.8.53,5,5.45,4.75,9.27,4.3,22.68-2.7,45.34-3.43,68.06-.3,3.61.5,8.63,1.16,9.52-4,1-6-4.31-5-7.86-5.71-17.45-3.65-26.19-11.11-27.49-26.07C291.21,234,293.21,198.47,292.69,159.89Zm142.83,60c-22.46-25-43.84-50.6-29.13-87.4a117.93,117.93,0,0,1,1,19.86c-.13,8.85,2.64,16.88,7,24.36s8.25,8.59,13.59-.07c7.85-12.75,16.77-24.87,25.63-37,12-16.41,18.6-34.3,18.35-54.93-.34-27.56-13.54-50-27.39-72.23C441.73,7.9,440.2.19,434.61,0c-6.56-.21-5.95,8.19-8.4,12.77a226.47,226.47,0,0,1-19,29c-9.5,12.71-19.2,25.3-28,38.49-13,19.53-14.59,40.89-6.94,62.72C383.74,175.62,404.3,201.29,435.52,219.88Z"/><path class="clsCms2" d="M292.69,159.89c.52,38.58-1.48,74.1,1.59,109.54,1.3,15,10,22.42,27.49,26.07,3.55.74,8.89-.27,7.86,5.71-.89,5.17-5.91,4.51-9.52,4-22.72-3.13-45.38-2.4-68.06.3-3.82.45-8.74.75-9.27-4.3-.55-5.29,4.53-5.12,8.25-5.8,20.23-3.71,26-8.07,26.59-28.1,1-38.16,1.42-76.45-.68-114.53-1.19-21.48-12.18-39.28-35.41-45.56-3.2-.86-5.84-2.17-5.5-5.88.45-4.86,4.32-4.5,7.77-4.47,15.9.12,31.8.42,47.69.31,4.89,0,7.76,2.25,10.81,5.62Q364.91,172.05,427.84,241c5.63,6.14,8.27,12.2,7.72,20.5-.7,10.69,0,21.47-.58,32.17-.23,4.26,1.47,10.41-4.71,12-5.36,1.41-8.48-3.31-11.66-6.64-11.55-12.11-23.16-24.18-34.35-36.62C354.45,229.25,324.85,195.92,292.69,159.89Z"/><path class="clsCms3" d="M435.52,219.88c-31.22-18.59-51.78-44.26-63.21-76.87-7.65-21.83-6.08-43.19,6.94-62.72,8.8-13.19,18.5-25.78,28-38.49a226.47,226.47,0,0,0,19-29c2.45-4.58,1.84-13,8.4-12.77,5.59.19,7.12,7.9,10,12.51,13.85,22.25,27,44.67,27.39,72.23.25,20.63-6.33,38.52-18.35,54.93-8.86,12.09-17.78,24.21-25.63,37-5.34,8.66-9.17,7.57-13.59.07s-7.17-15.51-7-24.36a117.93,117.93,0,0,0-1-19.86C391.68,169.28,413.06,194.83,435.52,219.88Z"/><text class="clsCms4" transform="translate(0 468.11)">NERVANA</text></g></g></svg>
